# xmcd
#
# Track frame offsets: 
#        150
#        13055
#        25987
#        37037
#        47451
#        58478
#        69089
#        78371
#        89729
#        98033
#        109457
#        118737
#        130341
#        141085
#        152567
#        163841
#        173533
#        184347
#        195332
#        207508
#
# Disc length: 2923 seconds
#
# Revision: 0
# Processed by: cddbd v1.5.2PL0 Copyright (c) Steve Scherf et al.
# Submitted via: ExactAudioCopy v1.0b3
#
DISCID=1b0b6914
DTITLE=Reeves, Jim - Legends Of Country Music [Disc 1]
DYEAR=2008
DGENRE=Country
TTITLE0=Four Walls
TTITLE1=Have I Told You Lately That I Love You
TTITLE2=The Gods Were Angry With Me
TTITLE3=Look Behind You
TTITLE4=Oklahoma Hills
TTITLE5=Two Shadows On Your Window
TTITLE6=Young Hearts
TTITLE7=Anna Marie
TTITLE8=Everywhere You Go
TTITLE9=Teardrops In My Heart
TTITLE10=I Get The Blues When It Rains
TTITLE11=You Belong To Me
TTITLE12=Need Me
TTITLE13=I Care No More
TTITLE14=My Happiness
TTITLE15=Yours (Quiereme Mucho)
TTITLE16=That's My Desire
TTITLE17=Blues In My Heart
TTITLE18=I Don't See Me In Your Eyes Anymore
TTITLE19=Final Affair
EXTD=
EXTT0=
EXTT1=
EXTT2=
EXTT3=
EXTT4=
EXTT5=
EXTT6=
EXTT7=
EXTT8=
EXTT9=
EXTT10=
EXTT11=
EXTT12=
EXTT13=
EXTT14=
EXTT15=
EXTT16=
EXTT17=
EXTT18=
EXTT19=
PLAYORDER=
